<svg width="280" height="280" viewBox="0 0 280 280" fill="none" xmlns="http://www.w3.org/2000/svg">
<g filter="url(#filter0_i_6_9)">
<rect width="280" height="280" rx="32" fill="#DEE2E6"/>
<g clip-path="url(#clip0_6_9)">
<path fill-rule="evenodd" clip-rule="evenodd" d="M140 73.6449C132.774 73.6449 126.916 79.5028 126.916 86.729H93.271C93.271 60.9213 114.192 40 140 40C165.808 40 186.729 60.9213 186.729 86.729C186.729 112.537 165.808 133.458 140 133.458V99.8131C147.226 99.8131 153.084 93.9551 153.084 86.729C153.084 79.5028 147.226 73.6449 140 73.6449ZM206.355 140C206.355 132.774 200.497 126.916 193.271 126.916V93.271C219.079 93.271 240 114.192 240 140C240 165.808 219.079 186.729 193.271 186.729C167.463 186.729 146.542 165.808 146.542 140H180.187C180.187 147.226 186.045 153.084 193.271 153.084C200.497 153.084 206.355 147.226 206.355 140ZM86.729 153.084C79.5028 153.084 73.6449 147.226 73.6449 140C73.6449 132.774 79.5028 126.916 86.729 126.916C93.9551 126.916 99.8131 132.774 99.8131 140H133.458C133.458 114.192 112.537 93.271 86.729 93.271C60.9213 93.271 40 114.192 40 140C40 165.808 60.9213 186.729 86.729 186.729V153.084ZM140 206.355C147.226 206.355 153.084 200.497 153.084 193.271H186.729C186.729 219.079 165.808 240 140 240C114.192 240 93.271 219.079 93.271 193.271C93.271 167.463 114.192 146.542 140 146.542V180.187C132.774 180.187 126.916 186.045 126.916 193.271C126.916 200.497 132.774 206.355 140 206.355Z" fill="black"/>
</g>
</g>
<defs>
<filter id="filter0_i_6_9" x="0" y="0" width="280" height="284" filterUnits="userSpaceOnUse" color-interpolation-filters="sRGB">
<feFlood flood-opacity="0" result="BackgroundImageFix"/>
<feBlend mode="normal" in="SourceGraphic" in2="BackgroundImageFix" result="shape"/>
<feColorMatrix in="SourceAlpha" type="matrix" values="0 0 0 0 0 0 0 0 0 0 0 0 0 0 0 0 0 0 127 0" result="hardAlpha"/>
<feMorphology radius="21" operator="erode" in="SourceAlpha" result="effect1_innerShadow_6_9"/>
<feOffset dy="4"/>
<feGaussianBlur stdDeviation="10.05"/>
<feComposite in2="hardAlpha" operator="arithmetic" k2="-1" k3="1"/>
<feColorMatrix type="matrix" values="0 0 0 0 0.45158 0 0 0 0 0.521737 0 0 0 0 0.591895 0 0 0 0.16 0"/>
<feBlend mode="normal" in2="shape" result="effect1_innerShadow_6_9"/>
</filter>
<clipPath id="clip0_6_9">
<rect width="200" height="200" fill="white" transform="translate(40 40)"/>
</clipPath>
</defs>
</svg>
