<svg width="284" height="284" viewBox="0 0 284 284" fill="none" xmlns="http://www.w3.org/2000/svg">
<mask id="mask0_27_3" style="mask-type:luminance" maskUnits="userSpaceOnUse" x="0" y="0" width="284" height="284">
<path d="M283.421 142L142 0.578613L0.578646 142L142 283.421L283.421 142Z" fill="white"/>
</mask>
<g mask="url(#mask0_27_3)">
<path fill-rule="evenodd" clip-rule="evenodd" d="M188.92 95.0799C183.81 89.9702 175.526 89.9702 170.416 95.0799L146.626 71.2893C164.875 53.0405 194.462 53.0405 212.711 71.2893C230.96 89.5383 230.959 119.125 212.711 137.374C194.462 155.623 164.875 155.623 146.626 137.374L170.416 113.584C175.526 118.693 183.81 118.693 188.92 113.583C194.03 108.474 194.03 100.189 188.92 95.0799ZM188.92 188.92C194.03 183.81 194.03 175.526 188.92 170.416L212.711 146.626C230.96 164.875 230.959 194.462 212.711 212.711C194.462 230.96 164.875 230.96 146.626 212.711C128.377 194.462 128.377 164.875 146.626 146.626L170.416 170.416C165.307 175.526 165.307 183.811 170.416 188.92C175.526 194.03 183.811 194.03 188.92 188.92ZM95.0799 113.583C89.9702 108.474 89.9703 100.189 95.0799 95.0799C100.19 89.9702 108.474 89.9702 113.584 95.0799C118.693 100.189 118.693 108.474 113.584 113.584L137.374 137.374C155.623 119.125 155.623 89.5381 137.374 71.2893C119.125 53.0405 89.5381 53.0405 71.2893 71.2893C53.0403 89.5383 53.0405 119.125 71.2893 137.374L95.0799 113.583ZM95.0799 188.92C100.189 194.03 108.474 194.03 113.584 188.92L137.374 212.711C119.125 230.96 89.5383 230.96 71.2893 212.711C53.0405 194.462 53.0403 164.875 71.2893 146.626C89.5383 128.377 119.125 128.377 137.374 146.626L113.584 170.416C108.474 165.307 100.189 165.307 95.0799 170.416C89.9703 175.526 89.9702 183.81 95.0799 188.92Z" fill="#3A3733"/>
</g>
</svg>
